%TF.GenerationSoftware,KiCad,Pcbnew,5.1.8-1.fc33*%
%TF.CreationDate,2020-12-25T13:36:26+01:00*%
%TF.ProjectId,lightring,6c696768-7472-4696-9e67-2e6b69636164,rev?*%
%TF.SameCoordinates,Original*%
%TF.FileFunction,Paste,Bot*%
%TF.FilePolarity,Positive*%
%FSLAX46Y46*%
G04 Gerber Fmt 4.6, Leading zero omitted, Abs format (unit mm)*
G04 Created by KiCad (PCBNEW 5.1.8-1.fc33) date 2020-12-25 13:36:26*
%MOMM*%
%LPD*%
G01*
G04 APERTURE LIST*
%ADD10C,0.100000*%
%ADD11R,1.900000X1.000000*%
%ADD12R,1.900000X1.800000*%
%ADD13R,1.300000X1.650000*%
%ADD14R,1.550000X1.425000*%
%ADD15R,1.380000X0.450000*%
%ADD16R,1.060000X0.650000*%
G04 APERTURE END LIST*
D10*
%TO.C,SW2*%
G36*
X189353109Y-87130513D02*
G01*
X190219135Y-87630513D01*
X189444135Y-88972853D01*
X188578109Y-88472853D01*
X189353109Y-87130513D01*
G37*
G36*
X186728109Y-91677147D02*
G01*
X187594135Y-92177147D01*
X186819135Y-93519487D01*
X185953109Y-93019487D01*
X186728109Y-91677147D01*
G37*
G36*
X185255865Y-90827147D02*
G01*
X186121891Y-91327147D01*
X185346891Y-92669487D01*
X184480865Y-92169487D01*
X185255865Y-90827147D01*
G37*
G36*
X187880865Y-86280513D02*
G01*
X188746891Y-86780513D01*
X187971891Y-88122853D01*
X187105865Y-87622853D01*
X187880865Y-86280513D01*
G37*
%TD*%
%TO.C,BT1*%
G36*
G01*
X165456440Y-61569761D02*
X165456440Y-60319759D01*
G75*
G02*
X165706439Y-60069760I249999J0D01*
G01*
X166331441Y-60069760D01*
G75*
G02*
X166581440Y-60319759I0J-249999D01*
G01*
X166581440Y-61569761D01*
G75*
G02*
X166331441Y-61819760I-249999J0D01*
G01*
X165706439Y-61819760D01*
G75*
G02*
X165456440Y-61569761I0J249999D01*
G01*
G37*
G36*
G01*
X162531440Y-61569761D02*
X162531440Y-60319759D01*
G75*
G02*
X162781439Y-60069760I249999J0D01*
G01*
X163406441Y-60069760D01*
G75*
G02*
X163656440Y-60319759I0J-249999D01*
G01*
X163656440Y-61569761D01*
G75*
G02*
X163406441Y-61819760I-249999J0D01*
G01*
X162781439Y-61819760D01*
G75*
G02*
X162531440Y-61569761I0J249999D01*
G01*
G37*
%TD*%
%TO.C,C1*%
G36*
G01*
X159250000Y-84275000D02*
X159750000Y-84275000D01*
G75*
G02*
X159975000Y-84500000I0J-225000D01*
G01*
X159975000Y-84950000D01*
G75*
G02*
X159750000Y-85175000I-225000J0D01*
G01*
X159250000Y-85175000D01*
G75*
G02*
X159025000Y-84950000I0J225000D01*
G01*
X159025000Y-84500000D01*
G75*
G02*
X159250000Y-84275000I225000J0D01*
G01*
G37*
G36*
G01*
X159250000Y-82725000D02*
X159750000Y-82725000D01*
G75*
G02*
X159975000Y-82950000I0J-225000D01*
G01*
X159975000Y-83400000D01*
G75*
G02*
X159750000Y-83625000I-225000J0D01*
G01*
X159250000Y-83625000D01*
G75*
G02*
X159025000Y-83400000I0J225000D01*
G01*
X159025000Y-82950000D01*
G75*
G02*
X159250000Y-82725000I225000J0D01*
G01*
G37*
%TD*%
%TO.C,C2*%
G36*
G01*
X164075000Y-75750000D02*
X164075000Y-75250000D01*
G75*
G02*
X164300000Y-75025000I225000J0D01*
G01*
X164750000Y-75025000D01*
G75*
G02*
X164975000Y-75250000I0J-225000D01*
G01*
X164975000Y-75750000D01*
G75*
G02*
X164750000Y-75975000I-225000J0D01*
G01*
X164300000Y-75975000D01*
G75*
G02*
X164075000Y-75750000I0J225000D01*
G01*
G37*
G36*
G01*
X162525000Y-75750000D02*
X162525000Y-75250000D01*
G75*
G02*
X162750000Y-75025000I225000J0D01*
G01*
X163200000Y-75025000D01*
G75*
G02*
X163425000Y-75250000I0J-225000D01*
G01*
X163425000Y-75750000D01*
G75*
G02*
X163200000Y-75975000I-225000J0D01*
G01*
X162750000Y-75975000D01*
G75*
G02*
X162525000Y-75750000I0J225000D01*
G01*
G37*
%TD*%
%TO.C,C4*%
G36*
G01*
X189175000Y-84650000D02*
X189175000Y-84150000D01*
G75*
G02*
X189400000Y-83925000I225000J0D01*
G01*
X189850000Y-83925000D01*
G75*
G02*
X190075000Y-84150000I0J-225000D01*
G01*
X190075000Y-84650000D01*
G75*
G02*
X189850000Y-84875000I-225000J0D01*
G01*
X189400000Y-84875000D01*
G75*
G02*
X189175000Y-84650000I0J225000D01*
G01*
G37*
G36*
G01*
X187625000Y-84650000D02*
X187625000Y-84150000D01*
G75*
G02*
X187850000Y-83925000I225000J0D01*
G01*
X188300000Y-83925000D01*
G75*
G02*
X188525000Y-84150000I0J-225000D01*
G01*
X188525000Y-84650000D01*
G75*
G02*
X188300000Y-84875000I-225000J0D01*
G01*
X187850000Y-84875000D01*
G75*
G02*
X187625000Y-84650000I0J225000D01*
G01*
G37*
%TD*%
%TO.C,C5*%
G36*
G01*
X160800000Y-84275000D02*
X161300000Y-84275000D01*
G75*
G02*
X161525000Y-84500000I0J-225000D01*
G01*
X161525000Y-84950000D01*
G75*
G02*
X161300000Y-85175000I-225000J0D01*
G01*
X160800000Y-85175000D01*
G75*
G02*
X160575000Y-84950000I0J225000D01*
G01*
X160575000Y-84500000D01*
G75*
G02*
X160800000Y-84275000I225000J0D01*
G01*
G37*
G36*
G01*
X160800000Y-82725000D02*
X161300000Y-82725000D01*
G75*
G02*
X161525000Y-82950000I0J-225000D01*
G01*
X161525000Y-83400000D01*
G75*
G02*
X161300000Y-83625000I-225000J0D01*
G01*
X160800000Y-83625000D01*
G75*
G02*
X160575000Y-83400000I0J225000D01*
G01*
X160575000Y-82950000D01*
G75*
G02*
X160800000Y-82725000I225000J0D01*
G01*
G37*
%TD*%
%TO.C,C6*%
G36*
G01*
X164075000Y-77250000D02*
X164075000Y-76750000D01*
G75*
G02*
X164300000Y-76525000I225000J0D01*
G01*
X164750000Y-76525000D01*
G75*
G02*
X164975000Y-76750000I0J-225000D01*
G01*
X164975000Y-77250000D01*
G75*
G02*
X164750000Y-77475000I-225000J0D01*
G01*
X164300000Y-77475000D01*
G75*
G02*
X164075000Y-77250000I0J225000D01*
G01*
G37*
G36*
G01*
X162525000Y-77250000D02*
X162525000Y-76750000D01*
G75*
G02*
X162750000Y-76525000I225000J0D01*
G01*
X163200000Y-76525000D01*
G75*
G02*
X163425000Y-76750000I0J-225000D01*
G01*
X163425000Y-77250000D01*
G75*
G02*
X163200000Y-77475000I-225000J0D01*
G01*
X162750000Y-77475000D01*
G75*
G02*
X162525000Y-77250000I0J225000D01*
G01*
G37*
%TD*%
%TO.C,C7*%
G36*
G01*
X164075000Y-72750000D02*
X164075000Y-72250000D01*
G75*
G02*
X164300000Y-72025000I225000J0D01*
G01*
X164750000Y-72025000D01*
G75*
G02*
X164975000Y-72250000I0J-225000D01*
G01*
X164975000Y-72750000D01*
G75*
G02*
X164750000Y-72975000I-225000J0D01*
G01*
X164300000Y-72975000D01*
G75*
G02*
X164075000Y-72750000I0J225000D01*
G01*
G37*
G36*
G01*
X162525000Y-72750000D02*
X162525000Y-72250000D01*
G75*
G02*
X162750000Y-72025000I225000J0D01*
G01*
X163200000Y-72025000D01*
G75*
G02*
X163425000Y-72250000I0J-225000D01*
G01*
X163425000Y-72750000D01*
G75*
G02*
X163200000Y-72975000I-225000J0D01*
G01*
X162750000Y-72975000D01*
G75*
G02*
X162525000Y-72750000I0J225000D01*
G01*
G37*
%TD*%
%TO.C,C8*%
G36*
G01*
X164075000Y-74250000D02*
X164075000Y-73750000D01*
G75*
G02*
X164300000Y-73525000I225000J0D01*
G01*
X164750000Y-73525000D01*
G75*
G02*
X164975000Y-73750000I0J-225000D01*
G01*
X164975000Y-74250000D01*
G75*
G02*
X164750000Y-74475000I-225000J0D01*
G01*
X164300000Y-74475000D01*
G75*
G02*
X164075000Y-74250000I0J225000D01*
G01*
G37*
G36*
G01*
X162525000Y-74250000D02*
X162525000Y-73750000D01*
G75*
G02*
X162750000Y-73525000I225000J0D01*
G01*
X163200000Y-73525000D01*
G75*
G02*
X163425000Y-73750000I0J-225000D01*
G01*
X163425000Y-74250000D01*
G75*
G02*
X163200000Y-74475000I-225000J0D01*
G01*
X162750000Y-74475000D01*
G75*
G02*
X162525000Y-74250000I0J225000D01*
G01*
G37*
%TD*%
%TO.C,C9*%
G36*
G01*
X156543820Y-68031480D02*
X156043820Y-68031480D01*
G75*
G02*
X155818820Y-67806480I0J225000D01*
G01*
X155818820Y-67356480D01*
G75*
G02*
X156043820Y-67131480I225000J0D01*
G01*
X156543820Y-67131480D01*
G75*
G02*
X156768820Y-67356480I0J-225000D01*
G01*
X156768820Y-67806480D01*
G75*
G02*
X156543820Y-68031480I-225000J0D01*
G01*
G37*
G36*
G01*
X156543820Y-69581480D02*
X156043820Y-69581480D01*
G75*
G02*
X155818820Y-69356480I0J225000D01*
G01*
X155818820Y-68906480D01*
G75*
G02*
X156043820Y-68681480I225000J0D01*
G01*
X156543820Y-68681480D01*
G75*
G02*
X156768820Y-68906480I0J-225000D01*
G01*
X156768820Y-69356480D01*
G75*
G02*
X156543820Y-69581480I-225000J0D01*
G01*
G37*
%TD*%
%TO.C,C10*%
G36*
G01*
X174675680Y-66650680D02*
X174675680Y-66150680D01*
G75*
G02*
X174900680Y-65925680I225000J0D01*
G01*
X175350680Y-65925680D01*
G75*
G02*
X175575680Y-66150680I0J-225000D01*
G01*
X175575680Y-66650680D01*
G75*
G02*
X175350680Y-66875680I-225000J0D01*
G01*
X174900680Y-66875680D01*
G75*
G02*
X174675680Y-66650680I0J225000D01*
G01*
G37*
G36*
G01*
X173125680Y-66650680D02*
X173125680Y-66150680D01*
G75*
G02*
X173350680Y-65925680I225000J0D01*
G01*
X173800680Y-65925680D01*
G75*
G02*
X174025680Y-66150680I0J-225000D01*
G01*
X174025680Y-66650680D01*
G75*
G02*
X173800680Y-66875680I-225000J0D01*
G01*
X173350680Y-66875680D01*
G75*
G02*
X173125680Y-66650680I0J225000D01*
G01*
G37*
%TD*%
%TO.C,C11*%
G36*
G01*
X171796520Y-80320000D02*
X171296520Y-80320000D01*
G75*
G02*
X171071520Y-80095000I0J225000D01*
G01*
X171071520Y-79645000D01*
G75*
G02*
X171296520Y-79420000I225000J0D01*
G01*
X171796520Y-79420000D01*
G75*
G02*
X172021520Y-79645000I0J-225000D01*
G01*
X172021520Y-80095000D01*
G75*
G02*
X171796520Y-80320000I-225000J0D01*
G01*
G37*
G36*
G01*
X171796520Y-81870000D02*
X171296520Y-81870000D01*
G75*
G02*
X171071520Y-81645000I0J225000D01*
G01*
X171071520Y-81195000D01*
G75*
G02*
X171296520Y-80970000I225000J0D01*
G01*
X171796520Y-80970000D01*
G75*
G02*
X172021520Y-81195000I0J-225000D01*
G01*
X172021520Y-81645000D01*
G75*
G02*
X171796520Y-81870000I-225000J0D01*
G01*
G37*
%TD*%
%TO.C,C12*%
G36*
G01*
X179166700Y-70780720D02*
X179166700Y-70280720D01*
G75*
G02*
X179391700Y-70055720I225000J0D01*
G01*
X179841700Y-70055720D01*
G75*
G02*
X180066700Y-70280720I0J-225000D01*
G01*
X180066700Y-70780720D01*
G75*
G02*
X179841700Y-71005720I-225000J0D01*
G01*
X179391700Y-71005720D01*
G75*
G02*
X179166700Y-70780720I0J225000D01*
G01*
G37*
G36*
G01*
X177616700Y-70780720D02*
X177616700Y-70280720D01*
G75*
G02*
X177841700Y-70055720I225000J0D01*
G01*
X178291700Y-70055720D01*
G75*
G02*
X178516700Y-70280720I0J-225000D01*
G01*
X178516700Y-70780720D01*
G75*
G02*
X178291700Y-71005720I-225000J0D01*
G01*
X177841700Y-71005720D01*
G75*
G02*
X177616700Y-70780720I0J225000D01*
G01*
G37*
%TD*%
%TO.C,D44*%
G36*
G01*
X152221780Y-72427810D02*
X152221780Y-71915310D01*
G75*
G02*
X152440530Y-71696560I218750J0D01*
G01*
X152878030Y-71696560D01*
G75*
G02*
X153096780Y-71915310I0J-218750D01*
G01*
X153096780Y-72427810D01*
G75*
G02*
X152878030Y-72646560I-218750J0D01*
G01*
X152440530Y-72646560D01*
G75*
G02*
X152221780Y-72427810I0J218750D01*
G01*
G37*
G36*
G01*
X150646780Y-72427810D02*
X150646780Y-71915310D01*
G75*
G02*
X150865530Y-71696560I218750J0D01*
G01*
X151303030Y-71696560D01*
G75*
G02*
X151521780Y-71915310I0J-218750D01*
G01*
X151521780Y-72427810D01*
G75*
G02*
X151303030Y-72646560I-218750J0D01*
G01*
X150865530Y-72646560D01*
G75*
G02*
X150646780Y-72427810I0J218750D01*
G01*
G37*
%TD*%
D11*
%TO.C,J2*%
X149637900Y-78386340D03*
D12*
X149637900Y-81086340D03*
D13*
X149637900Y-76561340D03*
X149637900Y-83311340D03*
D14*
X152212900Y-77448840D03*
X152212900Y-82423840D03*
D15*
X152297900Y-78636340D03*
X152297900Y-79286340D03*
X152297900Y-79936340D03*
X152297900Y-80586340D03*
X152297900Y-81236340D03*
%TD*%
%TO.C,R43*%
G36*
G01*
X167225000Y-75025000D02*
X167775000Y-75025000D01*
G75*
G02*
X167975000Y-75225000I0J-200000D01*
G01*
X167975000Y-75625000D01*
G75*
G02*
X167775000Y-75825000I-200000J0D01*
G01*
X167225000Y-75825000D01*
G75*
G02*
X167025000Y-75625000I0J200000D01*
G01*
X167025000Y-75225000D01*
G75*
G02*
X167225000Y-75025000I200000J0D01*
G01*
G37*
G36*
G01*
X167225000Y-73375000D02*
X167775000Y-73375000D01*
G75*
G02*
X167975000Y-73575000I0J-200000D01*
G01*
X167975000Y-73975000D01*
G75*
G02*
X167775000Y-74175000I-200000J0D01*
G01*
X167225000Y-74175000D01*
G75*
G02*
X167025000Y-73975000I0J200000D01*
G01*
X167025000Y-73575000D01*
G75*
G02*
X167225000Y-73375000I200000J0D01*
G01*
G37*
%TD*%
%TO.C,R44*%
G36*
G01*
X158525000Y-74700000D02*
X159075000Y-74700000D01*
G75*
G02*
X159275000Y-74900000I0J-200000D01*
G01*
X159275000Y-75300000D01*
G75*
G02*
X159075000Y-75500000I-200000J0D01*
G01*
X158525000Y-75500000D01*
G75*
G02*
X158325000Y-75300000I0J200000D01*
G01*
X158325000Y-74900000D01*
G75*
G02*
X158525000Y-74700000I200000J0D01*
G01*
G37*
G36*
G01*
X158525000Y-73050000D02*
X159075000Y-73050000D01*
G75*
G02*
X159275000Y-73250000I0J-200000D01*
G01*
X159275000Y-73650000D01*
G75*
G02*
X159075000Y-73850000I-200000J0D01*
G01*
X158525000Y-73850000D01*
G75*
G02*
X158325000Y-73650000I0J200000D01*
G01*
X158325000Y-73250000D01*
G75*
G02*
X158525000Y-73050000I200000J0D01*
G01*
G37*
%TD*%
%TO.C,R45*%
G36*
G01*
X159561080Y-65243120D02*
X159561080Y-64693120D01*
G75*
G02*
X159761080Y-64493120I200000J0D01*
G01*
X160161080Y-64493120D01*
G75*
G02*
X160361080Y-64693120I0J-200000D01*
G01*
X160361080Y-65243120D01*
G75*
G02*
X160161080Y-65443120I-200000J0D01*
G01*
X159761080Y-65443120D01*
G75*
G02*
X159561080Y-65243120I0J200000D01*
G01*
G37*
G36*
G01*
X157911080Y-65243120D02*
X157911080Y-64693120D01*
G75*
G02*
X158111080Y-64493120I200000J0D01*
G01*
X158511080Y-64493120D01*
G75*
G02*
X158711080Y-64693120I0J-200000D01*
G01*
X158711080Y-65243120D01*
G75*
G02*
X158511080Y-65443120I-200000J0D01*
G01*
X158111080Y-65443120D01*
G75*
G02*
X157911080Y-65243120I0J200000D01*
G01*
G37*
%TD*%
%TO.C,R46*%
G36*
G01*
X166285000Y-83335000D02*
X166835000Y-83335000D01*
G75*
G02*
X167035000Y-83535000I0J-200000D01*
G01*
X167035000Y-83935000D01*
G75*
G02*
X166835000Y-84135000I-200000J0D01*
G01*
X166285000Y-84135000D01*
G75*
G02*
X166085000Y-83935000I0J200000D01*
G01*
X166085000Y-83535000D01*
G75*
G02*
X166285000Y-83335000I200000J0D01*
G01*
G37*
G36*
G01*
X166285000Y-81685000D02*
X166835000Y-81685000D01*
G75*
G02*
X167035000Y-81885000I0J-200000D01*
G01*
X167035000Y-82285000D01*
G75*
G02*
X166835000Y-82485000I-200000J0D01*
G01*
X166285000Y-82485000D01*
G75*
G02*
X166085000Y-82285000I0J200000D01*
G01*
X166085000Y-81885000D01*
G75*
G02*
X166285000Y-81685000I200000J0D01*
G01*
G37*
%TD*%
%TO.C,R47*%
G36*
G01*
X173158200Y-78011700D02*
X173158200Y-77461700D01*
G75*
G02*
X173358200Y-77261700I200000J0D01*
G01*
X173758200Y-77261700D01*
G75*
G02*
X173958200Y-77461700I0J-200000D01*
G01*
X173958200Y-78011700D01*
G75*
G02*
X173758200Y-78211700I-200000J0D01*
G01*
X173358200Y-78211700D01*
G75*
G02*
X173158200Y-78011700I0J200000D01*
G01*
G37*
G36*
G01*
X171508200Y-78011700D02*
X171508200Y-77461700D01*
G75*
G02*
X171708200Y-77261700I200000J0D01*
G01*
X172108200Y-77261700D01*
G75*
G02*
X172308200Y-77461700I0J-200000D01*
G01*
X172308200Y-78011700D01*
G75*
G02*
X172108200Y-78211700I-200000J0D01*
G01*
X171708200Y-78211700D01*
G75*
G02*
X171508200Y-78011700I0J200000D01*
G01*
G37*
%TD*%
%TO.C,R48*%
G36*
G01*
X161735000Y-64695000D02*
X161185000Y-64695000D01*
G75*
G02*
X160985000Y-64495000I0J200000D01*
G01*
X160985000Y-64095000D01*
G75*
G02*
X161185000Y-63895000I200000J0D01*
G01*
X161735000Y-63895000D01*
G75*
G02*
X161935000Y-64095000I0J-200000D01*
G01*
X161935000Y-64495000D01*
G75*
G02*
X161735000Y-64695000I-200000J0D01*
G01*
G37*
G36*
G01*
X161735000Y-66345000D02*
X161185000Y-66345000D01*
G75*
G02*
X160985000Y-66145000I0J200000D01*
G01*
X160985000Y-65745000D01*
G75*
G02*
X161185000Y-65545000I200000J0D01*
G01*
X161735000Y-65545000D01*
G75*
G02*
X161935000Y-65745000I0J-200000D01*
G01*
X161935000Y-66145000D01*
G75*
G02*
X161735000Y-66345000I-200000J0D01*
G01*
G37*
%TD*%
%TO.C,R49*%
G36*
G01*
X168533260Y-82127680D02*
X168533260Y-82677680D01*
G75*
G02*
X168333260Y-82877680I-200000J0D01*
G01*
X167933260Y-82877680D01*
G75*
G02*
X167733260Y-82677680I0J200000D01*
G01*
X167733260Y-82127680D01*
G75*
G02*
X167933260Y-81927680I200000J0D01*
G01*
X168333260Y-81927680D01*
G75*
G02*
X168533260Y-82127680I0J-200000D01*
G01*
G37*
G36*
G01*
X170183260Y-82127680D02*
X170183260Y-82677680D01*
G75*
G02*
X169983260Y-82877680I-200000J0D01*
G01*
X169583260Y-82877680D01*
G75*
G02*
X169383260Y-82677680I0J200000D01*
G01*
X169383260Y-82127680D01*
G75*
G02*
X169583260Y-81927680I200000J0D01*
G01*
X169983260Y-81927680D01*
G75*
G02*
X170183260Y-82127680I0J-200000D01*
G01*
G37*
%TD*%
D16*
%TO.C,U2*%
X158251980Y-67581740D03*
X158251980Y-69481740D03*
X160451980Y-69481740D03*
X160451980Y-68531740D03*
X160451980Y-67581740D03*
%TD*%
%TO.C,U3*%
X169852520Y-79537560D03*
X169852520Y-80487560D03*
X169852520Y-78587560D03*
X167652520Y-78587560D03*
X167652520Y-79537560D03*
X167652520Y-80487560D03*
%TD*%
%TO.C,U4*%
X173578340Y-68198960D03*
X173578340Y-70098960D03*
X175778340Y-70098960D03*
X175778340Y-69148960D03*
X175778340Y-68198960D03*
%TD*%
M02*
