%TF.GenerationSoftware,KiCad,Pcbnew,5.1.8-1.fc33*%
%TF.CreationDate,2020-12-06T10:48:02+01:00*%
%TF.ProjectId,lightring,6c696768-7472-4696-9e67-2e6b69636164,rev?*%
%TF.SameCoordinates,Original*%
%TF.FileFunction,Legend,Bot*%
%TF.FilePolarity,Positive*%
%FSLAX46Y46*%
G04 Gerber Fmt 4.6, Leading zero omitted, Abs format (unit mm)*
G04 Created by KiCad (PCBNEW 5.1.8-1.fc33) date 2020-12-06 10:48:02*
%MOMM*%
%LPD*%
G01*
G04 APERTURE LIST*
%ADD10C,0.100000*%
%ADD11C,0.120000*%
G04 APERTURE END LIST*
D10*
X179857142Y-89326190D02*
X179904761Y-89302380D01*
X179928571Y-89254761D01*
X179928571Y-88826190D01*
X179666666Y-89326190D02*
X179666666Y-88992857D01*
X179666666Y-88826190D02*
X179690476Y-88850000D01*
X179666666Y-88873809D01*
X179642857Y-88850000D01*
X179666666Y-88826190D01*
X179666666Y-88873809D01*
X179214285Y-88992857D02*
X179214285Y-89397619D01*
X179238095Y-89445238D01*
X179261904Y-89469047D01*
X179309523Y-89492857D01*
X179380952Y-89492857D01*
X179428571Y-89469047D01*
X179214285Y-89302380D02*
X179261904Y-89326190D01*
X179357142Y-89326190D01*
X179404761Y-89302380D01*
X179428571Y-89278571D01*
X179452380Y-89230952D01*
X179452380Y-89088095D01*
X179428571Y-89040476D01*
X179404761Y-89016666D01*
X179357142Y-88992857D01*
X179261904Y-88992857D01*
X179214285Y-89016666D01*
X178976190Y-89326190D02*
X178976190Y-88826190D01*
X178761904Y-89326190D02*
X178761904Y-89064285D01*
X178785714Y-89016666D01*
X178833333Y-88992857D01*
X178904761Y-88992857D01*
X178952380Y-89016666D01*
X178976190Y-89040476D01*
X178595238Y-88992857D02*
X178404761Y-88992857D01*
X178523809Y-88826190D02*
X178523809Y-89254761D01*
X178500000Y-89302380D01*
X178452380Y-89326190D01*
X178404761Y-89326190D01*
X178238095Y-89326190D02*
X178238095Y-88992857D01*
X178238095Y-89088095D02*
X178214285Y-89040476D01*
X178190476Y-89016666D01*
X178142857Y-88992857D01*
X178095238Y-88992857D01*
X177928571Y-89326190D02*
X177928571Y-88992857D01*
X177928571Y-88826190D02*
X177952380Y-88850000D01*
X177928571Y-88873809D01*
X177904761Y-88850000D01*
X177928571Y-88826190D01*
X177928571Y-88873809D01*
X177690476Y-88992857D02*
X177690476Y-89326190D01*
X177690476Y-89040476D02*
X177666666Y-89016666D01*
X177619047Y-88992857D01*
X177547619Y-88992857D01*
X177500000Y-89016666D01*
X177476190Y-89064285D01*
X177476190Y-89326190D01*
X177023809Y-88992857D02*
X177023809Y-89397619D01*
X177047619Y-89445238D01*
X177071428Y-89469047D01*
X177119047Y-89492857D01*
X177190476Y-89492857D01*
X177238095Y-89469047D01*
X177023809Y-89302380D02*
X177071428Y-89326190D01*
X177166666Y-89326190D01*
X177214285Y-89302380D01*
X177238095Y-89278571D01*
X177261904Y-89230952D01*
X177261904Y-89088095D01*
X177238095Y-89040476D01*
X177214285Y-89016666D01*
X177166666Y-88992857D01*
X177071428Y-88992857D01*
X177023809Y-89016666D01*
X176452380Y-88992857D02*
X176333333Y-89326190D01*
X176214285Y-88992857D01*
X175928571Y-88826190D02*
X175880952Y-88826190D01*
X175833333Y-88850000D01*
X175809523Y-88873809D01*
X175785714Y-88921428D01*
X175761904Y-89016666D01*
X175761904Y-89135714D01*
X175785714Y-89230952D01*
X175809523Y-89278571D01*
X175833333Y-89302380D01*
X175880952Y-89326190D01*
X175928571Y-89326190D01*
X175976190Y-89302380D01*
X176000000Y-89278571D01*
X176023809Y-89230952D01*
X176047619Y-89135714D01*
X176047619Y-89016666D01*
X176023809Y-88921428D01*
X176000000Y-88873809D01*
X175976190Y-88850000D01*
X175928571Y-88826190D01*
X175547619Y-89278571D02*
X175523809Y-89302380D01*
X175547619Y-89326190D01*
X175571428Y-89302380D01*
X175547619Y-89278571D01*
X175547619Y-89326190D01*
X175047619Y-89326190D02*
X175333333Y-89326190D01*
X175190476Y-89326190D02*
X175190476Y-88826190D01*
X175238095Y-88897619D01*
X175285714Y-88945238D01*
X175333333Y-88969047D01*
D11*
%TO.C,R43*%
X168022500Y-74362742D02*
X168022500Y-74837258D01*
X166977500Y-74362742D02*
X166977500Y-74837258D01*
%TO.C,SW1*%
X187727147Y-67139840D02*
X188189647Y-67940914D01*
X184522853Y-68989840D02*
X186872853Y-73060160D01*
X188286843Y-72359262D02*
X188763157Y-72084262D01*
X185836843Y-68115738D02*
X186313157Y-67840738D01*
X189614647Y-70409086D02*
X190077147Y-71210160D01*
%TO.C,SW2*%
X188239647Y-92059086D02*
X187777147Y-92860160D01*
X188336843Y-87640738D02*
X188813157Y-87915738D01*
X185886843Y-91884262D02*
X186363157Y-92159262D01*
X186922853Y-86939840D02*
X184572853Y-91010160D01*
X190127147Y-88789840D02*
X189664647Y-89590914D01*
%TO.C,C1*%
X158990000Y-83809420D02*
X158990000Y-84090580D01*
X160010000Y-83809420D02*
X160010000Y-84090580D01*
%TO.C,C2*%
X163609420Y-74990000D02*
X163890580Y-74990000D01*
X163609420Y-76010000D02*
X163890580Y-76010000D01*
%TO.C,C3*%
X188909420Y-76010000D02*
X189190580Y-76010000D01*
X188909420Y-74990000D02*
X189190580Y-74990000D01*
%TO.C,C4*%
X188709420Y-83890000D02*
X188990580Y-83890000D01*
X188709420Y-84910000D02*
X188990580Y-84910000D01*
%TO.C,C5*%
X161560000Y-83809420D02*
X161560000Y-84090580D01*
X160540000Y-83809420D02*
X160540000Y-84090580D01*
%TO.C,C6*%
X163609420Y-77510000D02*
X163890580Y-77510000D01*
X163609420Y-76490000D02*
X163890580Y-76490000D01*
%TO.C,C7*%
X163609420Y-71990000D02*
X163890580Y-71990000D01*
X163609420Y-73010000D02*
X163890580Y-73010000D01*
%TO.C,C8*%
X163609420Y-74510000D02*
X163890580Y-74510000D01*
X163609420Y-73490000D02*
X163890580Y-73490000D01*
%TO.C,R44*%
X158277500Y-74037742D02*
X158277500Y-74512258D01*
X159322500Y-74037742D02*
X159322500Y-74512258D01*
%TD*%
M02*
