M48
; DRILL file {KiCad 5.1.8-1.fc33} date Sun Dec  6 10:48:05 2020
; FORMAT={-:-/ absolute / inch / decimal}
; #@! TF.CreationDate,2020-12-06T10:48:05+01:00
; #@! TF.GenerationSoftware,Kicad,Pcbnew,5.1.8-1.fc33
; #@! TF.FileFunction,Plated,1,2,PTH
FMAT,2
INCH
T1C0.0157
T2C0.0197
T3C0.0256
T4C0.0402
%
G90
G05
T1
X5.9803Y-3.5
X6.2402Y-3.5748
X6.2953Y-3.5236
X6.2992Y-3.1693
X6.3386Y-2.9409
X6.3543Y-2.8819
X6.4016Y-3.3937
X6.4055Y-3.0787
X6.4213Y-2.5157
X6.4252Y-2.7835
X6.4488Y-3.1063
X6.4685Y-2.7913
X6.4764Y-3.2323
X6.4921Y-2.4921
X6.5197Y-2.748
X6.5236Y-2.7913
X6.5315Y-2.9764
X6.5787Y-2.3661
X6.5827Y-2.5276
X6.6102Y-3.0197
X6.6535Y-2.8701
X6.7008Y-2.937
X6.7638Y-3.7047
X6.7953Y-3.8898
X6.8031Y-2.4843
X6.8701Y-2.5157
X7.1417Y-2.7638
X7.1516Y-2.6969
X7.2047Y-3.5866
X7.2862Y-3.3634
X7.3583Y-3.2244
X7.3701Y-3.0236
X7.4449Y-3.1181
T2
X6.1614Y-3.2421
X6.2143Y-3.1892
T3
X6.937Y-2.8543
X6.9724Y-2.8897
X7.0077Y-2.925
X7.0431Y-2.9604
X7.0784Y-2.9958
T4
X6.5787Y-3.5276
X6.9037Y-3.34
T0
M30
