%TF.GenerationSoftware,KiCad,Pcbnew,5.1.8-1.fc33*%
%TF.CreationDate,2020-12-20T15:25:04+01:00*%
%TF.ProjectId,base,62617365-2e6b-4696-9361-645f70636258,rev?*%
%TF.SameCoordinates,Original*%
%TF.FileFunction,Legend,Bot*%
%TF.FilePolarity,Positive*%
%FSLAX46Y46*%
G04 Gerber Fmt 4.6, Leading zero omitted, Abs format (unit mm)*
G04 Created by KiCad (PCBNEW 5.1.8-1.fc33) date 2020-12-20 15:25:04*
%MOMM*%
%LPD*%
G01*
G04 APERTURE LIST*
%ADD10C,0.150000*%
%ADD11C,0.500000*%
%ADD12C,0.250000*%
G04 APERTURE END LIST*
D10*
X144961904Y-95052380D02*
X144961904Y-94052380D01*
X144723809Y-94052380D01*
X144580952Y-94100000D01*
X144485714Y-94195238D01*
X144438095Y-94290476D01*
X144390476Y-94480952D01*
X144390476Y-94623809D01*
X144438095Y-94814285D01*
X144485714Y-94909523D01*
X144580952Y-95004761D01*
X144723809Y-95052380D01*
X144961904Y-95052380D01*
X143580952Y-95004761D02*
X143676190Y-95052380D01*
X143866666Y-95052380D01*
X143961904Y-95004761D01*
X144009523Y-94909523D01*
X144009523Y-94528571D01*
X143961904Y-94433333D01*
X143866666Y-94385714D01*
X143676190Y-94385714D01*
X143580952Y-94433333D01*
X143533333Y-94528571D01*
X143533333Y-94623809D01*
X144009523Y-94719047D01*
X143152380Y-95004761D02*
X143057142Y-95052380D01*
X142866666Y-95052380D01*
X142771428Y-95004761D01*
X142723809Y-94909523D01*
X142723809Y-94861904D01*
X142771428Y-94766666D01*
X142866666Y-94719047D01*
X143009523Y-94719047D01*
X143104761Y-94671428D01*
X143152380Y-94576190D01*
X143152380Y-94528571D01*
X143104761Y-94433333D01*
X143009523Y-94385714D01*
X142866666Y-94385714D01*
X142771428Y-94433333D01*
X142295238Y-95052380D02*
X142295238Y-94385714D01*
X142295238Y-94052380D02*
X142342857Y-94100000D01*
X142295238Y-94147619D01*
X142247619Y-94100000D01*
X142295238Y-94052380D01*
X142295238Y-94147619D01*
X141390476Y-94385714D02*
X141390476Y-95195238D01*
X141438095Y-95290476D01*
X141485714Y-95338095D01*
X141580952Y-95385714D01*
X141723809Y-95385714D01*
X141819047Y-95338095D01*
X141390476Y-95004761D02*
X141485714Y-95052380D01*
X141676190Y-95052380D01*
X141771428Y-95004761D01*
X141819047Y-94957142D01*
X141866666Y-94861904D01*
X141866666Y-94576190D01*
X141819047Y-94480952D01*
X141771428Y-94433333D01*
X141676190Y-94385714D01*
X141485714Y-94385714D01*
X141390476Y-94433333D01*
X140914285Y-94385714D02*
X140914285Y-95052380D01*
X140914285Y-94480952D02*
X140866666Y-94433333D01*
X140771428Y-94385714D01*
X140628571Y-94385714D01*
X140533333Y-94433333D01*
X140485714Y-94528571D01*
X140485714Y-95052380D01*
X139628571Y-95004761D02*
X139723809Y-95052380D01*
X139914285Y-95052380D01*
X140009523Y-95004761D01*
X140057142Y-94909523D01*
X140057142Y-94528571D01*
X140009523Y-94433333D01*
X139914285Y-94385714D01*
X139723809Y-94385714D01*
X139628571Y-94433333D01*
X139580952Y-94528571D01*
X139580952Y-94623809D01*
X140057142Y-94719047D01*
X138723809Y-95052380D02*
X138723809Y-94052380D01*
X138723809Y-95004761D02*
X138819047Y-95052380D01*
X139009523Y-95052380D01*
X139104761Y-95004761D01*
X139152380Y-94957142D01*
X139200000Y-94861904D01*
X139200000Y-94576190D01*
X139152380Y-94480952D01*
X139104761Y-94433333D01*
X139009523Y-94385714D01*
X138819047Y-94385714D01*
X138723809Y-94433333D01*
X137485714Y-95052380D02*
X137485714Y-94052380D01*
X137485714Y-94433333D02*
X137390476Y-94385714D01*
X137200000Y-94385714D01*
X137104761Y-94433333D01*
X137057142Y-94480952D01*
X137009523Y-94576190D01*
X137009523Y-94861904D01*
X137057142Y-94957142D01*
X137104761Y-95004761D01*
X137200000Y-95052380D01*
X137390476Y-95052380D01*
X137485714Y-95004761D01*
X136676190Y-94385714D02*
X136438095Y-95052380D01*
X136200000Y-94385714D02*
X136438095Y-95052380D01*
X136533333Y-95290476D01*
X136580952Y-95338095D01*
X136676190Y-95385714D01*
X134723809Y-94528571D02*
X134580952Y-94576190D01*
X134533333Y-94623809D01*
X134485714Y-94719047D01*
X134485714Y-94861904D01*
X134533333Y-94957142D01*
X134580952Y-95004761D01*
X134676190Y-95052380D01*
X135057142Y-95052380D01*
X135057142Y-94052380D01*
X134723809Y-94052380D01*
X134628571Y-94100000D01*
X134580952Y-94147619D01*
X134533333Y-94242857D01*
X134533333Y-94338095D01*
X134580952Y-94433333D01*
X134628571Y-94480952D01*
X134723809Y-94528571D01*
X135057142Y-94528571D01*
X133628571Y-95052380D02*
X133628571Y-94528571D01*
X133676190Y-94433333D01*
X133771428Y-94385714D01*
X133961904Y-94385714D01*
X134057142Y-94433333D01*
X133628571Y-95004761D02*
X133723809Y-95052380D01*
X133961904Y-95052380D01*
X134057142Y-95004761D01*
X134104761Y-94909523D01*
X134104761Y-94814285D01*
X134057142Y-94719047D01*
X133961904Y-94671428D01*
X133723809Y-94671428D01*
X133628571Y-94623809D01*
X133152380Y-95052380D02*
X133152380Y-94385714D01*
X133152380Y-94576190D02*
X133104761Y-94480952D01*
X133057142Y-94433333D01*
X132961904Y-94385714D01*
X132866666Y-94385714D01*
X132676190Y-94385714D02*
X132295238Y-94385714D01*
X132533333Y-94052380D02*
X132533333Y-94909523D01*
X132485714Y-95004761D01*
X132390476Y-95052380D01*
X132295238Y-95052380D01*
D11*
X143685714Y-91757142D02*
X143971428Y-91614285D01*
X144114285Y-91328571D01*
X144114285Y-88757142D01*
X142542857Y-91757142D02*
X142542857Y-89757142D01*
X142542857Y-88757142D02*
X142685714Y-88900000D01*
X142542857Y-89042857D01*
X142400000Y-88900000D01*
X142542857Y-88757142D01*
X142542857Y-89042857D01*
X139828571Y-89757142D02*
X139828571Y-92185714D01*
X139971428Y-92471428D01*
X140114285Y-92614285D01*
X140400000Y-92757142D01*
X140828571Y-92757142D01*
X141114285Y-92614285D01*
X139828571Y-91614285D02*
X140114285Y-91757142D01*
X140685714Y-91757142D01*
X140971428Y-91614285D01*
X141114285Y-91471428D01*
X141257142Y-91185714D01*
X141257142Y-90328571D01*
X141114285Y-90042857D01*
X140971428Y-89900000D01*
X140685714Y-89757142D01*
X140114285Y-89757142D01*
X139828571Y-89900000D01*
X138400000Y-91757142D02*
X138400000Y-88757142D01*
X137114285Y-91757142D02*
X137114285Y-90185714D01*
X137257142Y-89900000D01*
X137542857Y-89757142D01*
X137971428Y-89757142D01*
X138257142Y-89900000D01*
X138400000Y-90042857D01*
X136114285Y-89757142D02*
X134971428Y-89757142D01*
X135685714Y-88757142D02*
X135685714Y-91328571D01*
X135542857Y-91614285D01*
X135257142Y-91757142D01*
X134971428Y-91757142D01*
X133971428Y-91757142D02*
X133971428Y-89757142D01*
X133971428Y-90328571D02*
X133828571Y-90042857D01*
X133685714Y-89900000D01*
X133400000Y-89757142D01*
X133114285Y-89757142D01*
X132114285Y-91757142D02*
X132114285Y-89757142D01*
X132114285Y-88757142D02*
X132257142Y-88900000D01*
X132114285Y-89042857D01*
X131971428Y-88900000D01*
X132114285Y-88757142D01*
X132114285Y-89042857D01*
X130685714Y-89757142D02*
X130685714Y-91757142D01*
X130685714Y-90042857D02*
X130542857Y-89900000D01*
X130257142Y-89757142D01*
X129828571Y-89757142D01*
X129542857Y-89900000D01*
X129400000Y-90185714D01*
X129400000Y-91757142D01*
X126685714Y-89757142D02*
X126685714Y-92185714D01*
X126828571Y-92471428D01*
X126971428Y-92614285D01*
X127257142Y-92757142D01*
X127685714Y-92757142D01*
X127971428Y-92614285D01*
X126685714Y-91614285D02*
X126971428Y-91757142D01*
X127542857Y-91757142D01*
X127828571Y-91614285D01*
X127971428Y-91471428D01*
X128114285Y-91185714D01*
X128114285Y-90328571D01*
X127971428Y-90042857D01*
X127828571Y-89900000D01*
X127542857Y-89757142D01*
X126971428Y-89757142D01*
X126685714Y-89900000D01*
X122971428Y-91757142D02*
X122971428Y-88757142D01*
X121971428Y-90900000D01*
X120971428Y-88757142D01*
X120971428Y-91757142D01*
X119542857Y-91757142D02*
X119542857Y-88757142D01*
X119257142Y-90614285D02*
X118400000Y-91757142D01*
X118400000Y-89757142D02*
X119542857Y-90900000D01*
X115542857Y-91757142D02*
X117257142Y-91757142D01*
X116400000Y-91757142D02*
X116400000Y-88757142D01*
X116685714Y-89185714D01*
X116971428Y-89471428D01*
X117257142Y-89614285D01*
D12*
X151529515Y-90000000D02*
G75*
G03*
X151529515Y-90000000I-21529515J0D01*
G01*
M02*
