M48
; DRILL file {KiCad 5.1.8-1.fc33} date Sat Jan 30 22:30:20 2021
; FORMAT={-:-/ absolute / inch / decimal}
; #@! TF.CreationDate,2021-01-30T22:30:20+01:00
; #@! TF.GenerationSoftware,Kicad,Pcbnew,5.1.8-1.fc33
; #@! TF.FileFunction,Plated,1,2,PTH
FMAT,2
INCH
T1C0.0157
T2C0.0197
T3C0.0256
%
G90
G05
T1
X5.9803Y-3.5
X6.0524Y-2.7221
X6.0589Y-3.0308
X6.1148Y-3.0665
X6.2402Y-3.5748
X6.2922Y-2.6236
X6.2953Y-3.5236
X6.2992Y-3.1693
X6.3504Y-2.961
X6.3543Y-2.8819
X6.3791Y-3.4409
X6.4016Y-3.3937
X6.4055Y-3.0787
X6.4154Y-2.7831
X6.4213Y-2.5157
X6.4362Y-3.248
X6.4488Y-3.1063
X6.4559Y-2.7835
X6.4594Y-2.6
X6.4764Y-3.2323
X6.4921Y-2.4921
X6.5197Y-2.748
X6.5236Y-2.7913
X6.5331Y-3.128
X6.5403Y-2.9789
X6.5469Y-2.8933
X6.5556Y-2.8191
X6.5577Y-3.7215
X6.5787Y-2.3661
X6.5827Y-2.5276
X6.5921Y-3.8254
X6.6119Y-3.05
X6.6815Y-2.8976
X6.7008Y-2.937
X6.7305Y-3.2765
X6.7622Y-2.4603
X6.7638Y-3.7047
X6.7953Y-3.8898
X6.8031Y-2.4843
X6.8091Y-3.2081
X6.8118Y-3.2484
X6.8606Y-2.5713
X6.8701Y-2.5157
X6.9669Y-3.7743
X6.9849Y-3.7386
X7.0209Y-2.8441
X7.1044Y-3.618
X7.1258Y-3.6652
X7.1417Y-2.7638
X7.1501Y-2.6976
X7.2047Y-3.5866
X7.2862Y-3.3634
X7.3583Y-3.2244
X7.3701Y-3.0236
X7.4449Y-3.1181
T2
X6.1614Y-3.2421
X6.2143Y-3.1892
T3
X6.937Y-2.8543
X6.9724Y-2.8897
X7.0077Y-2.925
X7.0431Y-2.9604
X7.0784Y-2.9958
T0
M30
